<?xml version="1.0" encoding="utf-8"?>
<!-- Generator: Adobe Illustrator 23.1.0, SVG Export Plug-In . SVG Version: 6.00 Build 0)  -->
<svg version="1.1" id="Layer_1" xmlns="http://www.w3.org/2000/svg" xmlns:xlink="http://www.w3.org/1999/xlink" x="0px" y="0px"
	 viewBox="0 0 640 640" style="enable-background:new 0 0 640 640;" xml:space="preserve">
<style type="text/css">
	.st0{fill:url(#SVGID_1_);}
	.st1{fill:#333333;}
</style>
<g>
	<linearGradient id="SVGID_1_" gradientUnits="userSpaceOnUse" x1="36.1244" y1="320" x2="603.8755" y2="320">
		<stop  offset="0" style="stop-color:#00A86B"/>
		<stop  offset="0.2237" style="stop-color:#00A874"/>
		<stop  offset="0.6415" style="stop-color:#00A78A"/>
		<stop  offset="1" style="stop-color:#00A79D"/>
	</linearGradient>
	<path class="st0" d="M603.9,170.6h-66.7v-66.5h-501v212.1h103.2L36.2,376.5l50.8,28.8l-41.5,72.9l101.9,57.8l41.5-72.9l50.8,28.8
		l-0.8-109.1h365V170.6z M69.5,282.9V137.3h434.3v145.5H238.2l-0.2-24.4l-41.8,24.4H69.5z M176.3,417.7l-41.5,72.9l-43.9-24.9
		l41.5-72.9l-29.5-16.7l102.2-59.8l0.8,118.2L176.3,417.7z M570.5,349.4H238.7l-0.2-33.3h298.7V203.9h33.4L570.5,349.4L570.5,349.4z
		"/>
	<g>
		<path class="st1" d="M130.1,170.5c11.7,0,20.7,2.1,27,6.3c6.2,4.2,9.4,10.7,9.4,19.5c0,5.5-1.3,10-3.8,13.4
			c-2.5,3.4-6.2,6.1-10.9,8.1c1.6,2,3.2,4.2,5,6.7c1.7,2.5,3.4,5.2,5.1,7.9c1.7,2.7,3.3,5.6,4.9,8.6c1.6,3,3,5.9,4.4,8.8h-19.7
			c-1.4-2.6-2.9-5.2-4.4-7.8c-1.5-2.6-3-5.2-4.5-7.7s-3.1-4.8-4.6-7.1c-1.5-2.2-3-4.2-4.5-6h-8.7v28.6h-17.6v-77.1
			c3.8-0.8,7.8-1.3,11.9-1.6C123.2,170.7,126.9,170.5,130.1,170.5z M131.1,185.5c-1.3,0-2.4,0-3.4,0.1c-1,0.1-2,0.2-2.9,0.2v21.2h5
			c6.6,0,11.4-0.8,14.2-2.5c2.9-1.7,4.3-4.5,4.3-8.5c0-3.8-1.5-6.6-4.3-8.2C141,186.3,136.8,185.5,131.1,185.5z"/>
		<path class="st1" d="M212.2,251.2c-5.5,0-10.2-0.8-14.2-2.3c-4-1.5-7.3-3.7-9.9-6.4c-2.6-2.7-4.5-6-5.8-9.8
			c-1.2-3.8-1.9-8-1.9-12.6v-48.7h17.6v47.2c0,3.2,0.4,5.9,1.1,8.1c0.7,2.2,1.7,4,2.9,5.4c1.2,1.4,2.7,2.4,4.5,3
			c1.8,0.6,3.7,0.9,5.8,0.9c4.3,0,7.8-1.3,10.4-4c2.7-2.6,4-7.1,4-13.4v-47.2h17.6v48.7c0,4.6-0.6,8.8-1.9,12.6
			c-1.3,3.8-3.2,7.1-5.9,9.9c-2.6,2.7-6,4.9-10,6.4C222.6,250.5,217.8,251.2,212.2,251.2z"/>
		<path class="st1" d="M313.9,249.7c-5-9-10.5-17.8-16.4-26.5c-5.9-8.7-12.1-17-18.7-24.7v51.3h-17.4v-78.3h14.3
			c2.5,2.5,5.2,5.5,8.2,9.1c3,3.6,6.1,7.5,9.2,11.6c3.1,4.1,6.2,8.4,9.3,12.8c3.1,4.4,6,8.6,8.7,12.7v-46.2h17.5v78.3H313.9z"/>
		<path class="st1" d="M373.9,171.4h17.6v78.3h-17.6V171.4z"/>
		<path class="st1" d="M467.6,171.4v15H444v63.2h-17.6v-63.2h-23.6v-15H467.6z"/>
	</g>
</g>
</svg>
